<svg xmlns="http://www.w3.org/2000/svg" viewBox="0 0 500 500"><g id="freepik--background-complete--inject-84"><rect y="382.4" width="500" height="0.25" style="fill:#ebebeb"></rect><rect x="416.78" y="398.49" width="33.12" height="0.25" style="fill:#ebebeb"></rect><rect x="322.53" y="401.21" width="8.69" height="0.25" style="fill:#ebebeb"></rect><rect x="396.59" y="389.21" width="19.19" height="0.25" style="fill:#ebebeb"></rect><rect x="52.46" y="390.89" width="43.19" height="0.25" style="fill:#ebebeb"></rect><rect x="104.56" y="390.89" width="6.33" height="0.25" style="fill:#ebebeb"></rect><rect x="131.47" y="395.11" width="93.68" height="0.25" style="fill:#ebebeb"></rect><path d="M237,337.8H43.91a5.71,5.71,0,0,1-5.7-5.71V60.66A5.71,5.71,0,0,1,43.91,55H237a5.71,5.71,0,0,1,5.71,5.71V332.09A5.71,5.71,0,0,1,237,337.8ZM43.91,55.2a5.46,5.46,0,0,0-5.45,5.46V332.09a5.46,5.46,0,0,0,5.45,5.46H237a5.47,5.47,0,0,0,5.46-5.46V60.66A5.47,5.47,0,0,0,237,55.2Z" style="fill:#ebebeb"></path><path d="M453.31,337.8H260.21a5.72,5.72,0,0,1-5.71-5.71V60.66A5.72,5.72,0,0,1,260.21,55h193.1A5.71,5.71,0,0,1,459,60.66V332.09A5.71,5.71,0,0,1,453.31,337.8ZM260.21,55.2a5.47,5.47,0,0,0-5.46,5.46V332.09a5.47,5.47,0,0,0,5.46,5.46h193.1a5.47,5.47,0,0,0,5.46-5.46V60.66a5.47,5.47,0,0,0-5.46-5.46Z" style="fill:#ebebeb"></path><circle cx="334" cy="166.55" r="36.6" transform="translate(95.17 453.34) rotate(-76.72)" style="fill:#f5f5f5"></circle><path d="M391.08,153.56a6,6,0,0,0-6-6,6,6,0,0,0-1.71.25,12.32,12.32,0,0,0,.13-1.83,12.63,12.63,0,0,0-12.62-12.63,12.78,12.78,0,0,0-2.33.22,11,11,0,0,0-20.46,5.58H348a10.17,10.17,0,0,0,0,20.34h37.34A6,6,0,0,0,391.08,153.56Z" style="fill:#ebebeb"></path><path d="M319.74,190.5a6,6,0,0,0-6-6,6.11,6.11,0,0,0-1.72.25,12.32,12.32,0,0,0,.14-1.83,12.65,12.65,0,0,0-14.95-12.41,11,11,0,0,0-20.46,5.58h-.19a10.17,10.17,0,0,0,0,20.34h37.34A6,6,0,0,0,319.74,190.5Z" style="fill:#ebebeb"></path><path d="M165.45,129.26a6,6,0,0,0-7.67-5.71,13.83,13.83,0,0,0,.13-1.83A12.65,12.65,0,0,0,143,109.31a11,11,0,0,0-20.46,5.58h-.19a10.17,10.17,0,0,0,0,20.34h37.34A6,6,0,0,0,165.45,129.26Z" style="fill:#ebebeb"></path><path d="M410.13,222.94a3.6,3.6,0,0,0-3.6-3.6,3.47,3.47,0,0,0-1,.15,8,8,0,0,0,.08-1.1,7.63,7.63,0,0,0-7.63-7.63,7.32,7.32,0,0,0-1.41.13,6.67,6.67,0,0,0-12.37,3.37h-.11a6.15,6.15,0,0,0,0,12.3h22.57A3.6,3.6,0,0,0,410.13,222.94Z" style="fill:#ebebeb"></path><path d="M265.34,131.65a3.6,3.6,0,0,0-3.6-3.6,3.47,3.47,0,0,0-1,.15,8.05,8.05,0,0,0,.08-1.11,7.64,7.64,0,0,0-7.63-7.63,8.22,8.22,0,0,0-1.41.13A6.67,6.67,0,0,0,239.38,123h-.11a6.15,6.15,0,0,0,0,12.29h22.57A3.6,3.6,0,0,0,265.34,131.65Z" style="fill:#ebebeb"></path><path d="M97.65,207.12A3.61,3.61,0,0,0,93,203.67a6.75,6.75,0,0,0,.08-1.11,7.63,7.63,0,0,0-7.63-7.63,8,8,0,0,0-1.4.13,6.67,6.67,0,0,0-12.37,3.37h-.11a6.15,6.15,0,1,0,0,12.29H94.15A3.61,3.61,0,0,0,97.65,207.12Z" style="fill:#ebebeb"></path><path d="M175.87,358.89s-4.62-71.81-28.35-165.33l4.81-3.64S173.14,223.71,194,354.64Z" style="fill:#e6e6e6"></path><path d="M434,382s-64.71-45.76-170.7-45.76S89.14,382,89.14,382Z" style="fill:#ebebeb"></path><path d="M141.4,171.78c-11.16-6.21-26.13,6-27,23.56a33.19,33.19,0,0,1,4.72-2.67c.51-4.43,1-8.36,1-8.36v7.89c.91-.41,1.91-.81,3-1.19l.43-4.28.63,3.92a37,37,0,0,1,4.53-1.14l1.1-12.46,1.9,12a33.75,33.75,0,0,1,4.75-.13l.61-8.47.63,8.55a31.27,31.27,0,0,1,4.06.63l.56-12.6s.46,7,1,13A33.08,33.08,0,0,1,154,195.34V193.8S151.59,177.45,141.4,171.78Z" style="fill:#e0e0e0"></path><path d="M155.73,165.13c7.77-10.13,26.38-4.84,34.18,10.88a32.54,32.54,0,0,0-5.4-.58c-2.23-3.86-4.26-7.26-4.26-7.26l3.13,7.23c-1,0-2.08,0-3.22.11l-2.1-3.75,1,3.84a39.35,39.35,0,0,0-4.61.75l-6-11,3,11.8a32.14,32.14,0,0,0-4.41,1.76l-3.93-7.52,2.83,8.09a29.6,29.6,0,0,0-3.48,2.19L157,170.33s2.37,6.64,4.27,12.3a33,33,0,0,0-7.74,9.14l-.61-1.42S148.63,174.39,155.73,165.13Z" style="fill:#e0e0e0"></path><path d="M165.51,187.14c-9.08-7.67-14.93,0-14.93,0a18.6,18.6,0,0,1,8.9,4.85l1-1.58V193c.64.64,1.26,1.3,1.86,2l1.62-4.56-.4,6.05c.87,1.09,1.68,2.21,2.43,3.33l.54-4.45.36,5.82c.8,1.26,1.53,2.5,2.18,3.67l.34-8.11.87,10.4c1.59,3.11,2.46,5.31,2.46,5.31S174.59,194.81,165.51,187.14Z" style="fill:#e0e0e0"></path><path d="M144,208.35l1.83.89c.16-1.37.35-2.81.58-4.27l-1.35-2.09,1.57.82c.08-.49.17-1,.27-1.46l-1.84-4.16,2.41,1.54c1-3.94,2.29-7.45,4.14-9.21,0,0-19,7.63-6.5,27.81,0,0,.11-3.35.58-7.77Z" style="fill:#e0e0e0"></path><path d="M161.92,189.81l2.69-6.08-.84,6.2c.31,0,.63.06.95.1l3.67-5.31-.58,5.85a37.69,37.69,0,0,1,4.16,1.2,45.66,45.66,0,0,1,4.36,1.82l1.59-5.27-.5,5.8c1.4.7,2.76,1.46,4.07,2.24l.65-4.59.28,5.16c1.61,1,3.13,2,4.54,3l-.71-8.18,1.85,9c1.44,1.06,2.74,2.08,3.86,3l-.26-5.69,2,7.11c1.61,1.38,2.54,2.27,2.54,2.27-2.22-19.84-10.5-27.18-23.41-28.39s-21.15,12.7-21.15,12.7S155.41,189.63,161.92,189.81Z" style="fill:#e0e0e0"></path><path d="M126.47,216.81l1.59,5.85c.45-1.51,1.08-3.46,1.89-5.63l-1.67-8.6,2.41,6.7a67.35,67.35,0,0,1,4.53-9.32L133,199.92l3.27,4.26c.53-.82,1.09-1.62,1.67-2.39l-1.3-3.71,1.82,3c.4-.5.81-1,1.24-1.46l-1.62-5,2.3,4.22a22.69,22.69,0,0,1,3.88-3.25l-2.48-6s1.61,2.42,3.59,5.37a14,14,0,0,1,6.29-1.79,21.39,21.39,0,0,0-11.54-7.5c-7.27-1.62-21.6,12.33-12.92,40.16,0,0,.16-.66.47-1.78Z" style="fill:#e0e0e0"></path><path d="M134.18,161l-1,3.69a7.17,7.17,0,0,1,1.34.09L135.7,160l-.63,4.87a10.45,10.45,0,0,1,2.71,1l1.55-6.46-.68,7c.33.22.68.45,1,.72l1.84-6.1-1.25,6.57a25.17,25.17,0,0,1,4.66,5.35v-8.74l1.86,11.8a70.64,70.64,0,0,1,4.84,11.21s-1-31.68-8.92-34.71-11.3,12.51-11.3,12.51a4.07,4.07,0,0,1,1-.24Z" style="fill:#e0e0e0"></path><path d="M147.6,195.34l1.11,5.95,1.87-5.95,3.43,4.31.91-4.31,3.78,2.74s-1-7.61-3.52-10.94S146,186.76,147.6,195.34Z" style="fill:#e0e0e0"></path><path d="M201.39,346.67S194,244.05,234.72,141.41l-4.9-4.38s-44.55,76.63-48.58,211.05Z" style="fill:#e6e6e6"></path><path d="M245.73,114.49c12.71-7.08,29.77,6.88,30.8,26.84a38.12,38.12,0,0,0-5.38-3.05c-.58-5-1.17-9.52-1.17-9.52v9c-1-.46-2.18-.92-3.41-1.35l-.49-4.87-.73,4.46a44,44,0,0,0-5.15-1.3L259,120.49l-2.17,13.7a35.74,35.74,0,0,0-5.41-.15l-.7-9.65-.71,9.73a35.24,35.24,0,0,0-4.63.73l-.63-14.36s-.53,8-1.11,14.79a37.33,37.33,0,0,0-12.23,6.05v-1.76S234.12,121,245.73,114.49Z" style="fill:#e0e0e0"></path><path d="M229.41,106.92c-8.85-11.55-30-5.52-38.94,12.38a37.66,37.66,0,0,1,6.15-.66c2.54-4.4,4.86-8.27,4.86-8.27l-3.57,8.24c1.14,0,2.36,0,3.67.12l2.39-4.27-1.11,4.38a42.48,42.48,0,0,1,5.24.85l6.79-12.52-3.45,13.43a37.27,37.27,0,0,1,5,2l4.48-8.57-3.22,9.21a34,34,0,0,1,4,2.51L228,112.83s-2.7,7.56-4.86,14a37.29,37.29,0,0,1,8.81,10.41l.7-1.62S237.49,117.46,229.41,106.92Z" style="fill:#e0e0e0"></path><path d="M218.26,132c10.34-8.73,17,0,17,0a21.15,21.15,0,0,0-10.14,5.53l-1.18-1.8v2.92c-.73.73-1.43,1.49-2.12,2.28l-1.85-5.2.46,6.89c-1,1.24-1.91,2.52-2.77,3.8l-.62-5.07-.4,6.63c-.91,1.43-1.74,2.84-2.48,4.18l-.39-9.24-1,11.84c-1.81,3.54-2.8,6-2.8,6S207.92,140.72,218.26,132Z" style="fill:#e0e0e0"></path><path d="M242.74,156.15l-2.08,1c-.18-1.55-.4-3.19-.66-4.85l1.54-2.39-1.79.93c-.09-.55-.2-1.1-.31-1.65l2.1-4.74-2.75,1.75c-1.09-4.49-2.6-8.48-4.71-10.49,0,0,21.65,8.69,7.4,31.67,0,0-.13-3.81-.66-8.84Z" style="fill:#e0e0e0"></path><path d="M222.36,135l-3.07-6.93,1,7.06-1.09.11L215,129.22l.66,6.67a41.45,41.45,0,0,0-4.74,1.37,50.51,50.51,0,0,0-5,2.07l-1.82-6,.57,6.62c-1.58.8-3.13,1.66-4.63,2.55l-.74-5.23-.32,5.87c-1.83,1.14-3.57,2.3-5.17,3.45l.81-9.32-2.11,10.26c-1.64,1.21-3.12,2.37-4.39,3.41l.29-6.48-2.23,8.1c-1.83,1.57-2.88,2.58-2.88,2.58,2.53-22.6,12-31,26.66-32.34s24.1,14.47,24.1,14.47S229.77,134.82,222.36,135Z" style="fill:#e0e0e0"></path><path d="M262.74,165.79l-1.82,6.66c-.51-1.73-1.23-3.94-2.15-6.42l1.9-9.8-2.74,7.64a76,76,0,0,0-5.17-10.62l2.57-6.7-3.73,4.84c-.6-.93-1.24-1.84-1.9-2.71l1.49-4.23-2.07,3.47c-.46-.57-.93-1.13-1.41-1.67l1.84-5.65-2.63,4.81a25.41,25.41,0,0,0-4.41-3.69l2.82-6.87L241.25,141a16.07,16.07,0,0,0-7.17-2,24.36,24.36,0,0,1,13.14-8.55c8.28-1.84,24.6,14,14.72,45.76,0,0-.18-.75-.54-2Z" style="fill:#e0e0e0"></path><path d="M254,102.15l1.08,4.2a9.54,9.54,0,0,0-1.53.1L252.22,101l.72,5.56a11.41,11.41,0,0,0-3.08,1.14l-1.77-7.36.78,7.94a13.29,13.29,0,0,0-1.18.82l-2.1-6.95,1.42,7.49a28.46,28.46,0,0,0-5.3,6.09v-10l-2.12,13.44A80.19,80.19,0,0,0,234.08,132s1.19-36.09,10.16-39.54,12.87,14.25,12.87,14.25a5.28,5.28,0,0,0-1.17-.27Z" style="fill:#e0e0e0"></path><path d="M238.67,141.33l-1.27,6.77-2.13-6.77-3.91,4.9-1-4.9L226,144.45s1.12-8.68,4-12.47S240.48,131.55,238.67,141.33Z" style="fill:#e0e0e0"></path></g><g id="freepik--Shadow--inject-84"><ellipse id="freepik--path--inject-84" cx="250" cy="416.24" rx="193.89" ry="11.32" style="fill:#f5f5f5"></ellipse></g><g id="freepik--Castle--inject-84"><polygon points="403.41 247.43 420.27 254.49 403.41 260.46 403.41 247.43" style="fill:#407BFF"></polygon><polygon points="315.07 230.19 331.93 237.25 315.07 243.22 315.07 230.19" style="fill:#407BFF"></polygon><path d="M403.41,286.67a.5.5,0,0,1-.5-.5V244.12a.5.5,0,0,1,.5-.5.5.5,0,0,1,.5.5v42.05A.5.5,0,0,1,403.41,286.67Z" style="fill:#263238"></path><path d="M315.07,269.44a.51.51,0,0,1-.5-.5V226.88a.5.5,0,0,1,.5-.5.5.5,0,0,1,.5.5v42.06A.5.5,0,0,1,315.07,269.44Z" style="fill:#263238"></path><rect x="388.89" y="282.13" width="28.5" height="133.53" style="fill:#407BFF"></rect><rect x="388.89" y="282.13" width="28.5" height="133.53" style="fill:#fff;opacity:0.2"></rect><polygon points="418.68 283.43 418.68 270.04 414.99 270.04 414.99 273.85 411.83 273.85 411.83 270.04 408.14 270.04 408.14 273.85 404.98 273.85 404.98 270.04 401.3 270.04 401.3 273.85 398.14 273.85 398.14 270.04 394.45 270.04 394.45 273.85 391.29 273.85 391.29 270.04 387.6 270.04 387.6 283.43 418.68 283.43" style="fill:#407BFF"></polygon><polygon points="418.68 283.43 418.68 270.04 414.99 270.04 414.99 273.85 411.83 273.85 411.83 270.04 408.14 270.04 408.14 273.85 404.98 273.85 404.98 270.04 401.3 270.04 401.3 273.85 398.14 273.85 398.14 270.04 394.45 270.04 394.45 273.85 391.29 273.85 391.29 270.04 387.6 270.04 387.6 283.43 418.68 283.43" style="fill:#fff;opacity:0.30000000000000004"></polygon><g style="opacity:0.2;isolation:isolate"><path d="M414.29,289.12a1.12,1.12,0,1,1,1.12-1.12A1.12,1.12,0,0,1,414.29,289.12Z"></path><path d="M412,312.19a1.12,1.12,0,1,1,1.12-1.12A1.12,1.12,0,0,1,412,312.19Z"></path><circle cx="395.7" cy="364.03" r="1.12"></circle><path d="M393.31,347.79a1.12,1.12,0,1,1,1.13-1.12A1.12,1.12,0,0,1,393.31,347.79Z"></path><path d="M406.68,295.33a.56.56,0,1,1,.56-.56A.56.56,0,0,1,406.68,295.33Z"></path><path d="M400.59,277.14a.89.89,0,1,1,.88-.88A.89.89,0,0,1,400.59,277.14Z"></path><path d="M391.75,308a.89.89,0,0,1,0-1.77.89.89,0,1,1,0,1.77Z"></path><path d="M397,287.32a.44.44,0,0,1-.44-.44.45.45,0,1,1,.44.44Z"></path><path d="M408.36,410.52a.56.56,0,1,1,.56-.56A.56.56,0,0,1,408.36,410.52Z"></path><path d="M411.72,393.78a.56.56,0,1,1,.56-.56A.56.56,0,0,1,411.72,393.78Z"></path><path d="M402.83,380.36a.56.56,0,1,1,.56-.56A.56.56,0,0,1,402.83,380.36Z"></path><path d="M395.33,393.22a.89.89,0,1,1,.89-.89A.88.88,0,0,1,395.33,393.22Z"></path><path d="M398.68,402.52a.45.45,0,1,1,.45-.45A.45.45,0,0,1,398.68,402.52Z"></path><path d="M402.27,311.07a.56.56,0,1,1,.56-.56A.56.56,0,0,1,402.27,311.07Z"></path><path d="M414.85,323.57a.56.56,0,1,1,.56-.56A.56.56,0,0,1,414.85,323.57Z"></path><circle cx="413.17" cy="337.2" r="1.12"></circle><circle cx="410.84" cy="360.27" r="1.12"></circle><path d="M405.56,344.53a.56.56,0,1,1,.56-.56A.56.56,0,0,1,405.56,344.53Z"></path><path d="M400,330.27a.56.56,0,0,1,0-1.12.56.56,0,1,1,0,1.12Z"></path><path d="M401.15,360.27a.56.56,0,0,1-.56-.56.56.56,0,1,1,1.12,0A.56.56,0,0,1,401.15,360.27Z"></path><path d="M413.73,372.77a.56.56,0,1,1,.56-.56A.56.56,0,0,1,413.73,372.77Z"></path></g><path d="M403.14,296.64h0a5.11,5.11,0,0,0-5.11,5.11v15.12h10.22V301.75A5.11,5.11,0,0,0,403.14,296.64Z" style="fill:#407BFF"></path><path d="M403.14,296.64h0a5.11,5.11,0,0,0-5.11,5.11v15.12h10.22V301.75A5.11,5.11,0,0,0,403.14,296.64Z" style="opacity:0.2;isolation:isolate"></path><path d="M403.14,301.2a4,4,0,0,0-4,3.95v11.72h7.92V305.15A4,4,0,0,0,403.14,301.2Z" style="opacity:0.2;isolation:isolate"></path><polygon points="340.8 260.18 334.69 260.18 334.69 266.48 329.45 266.48 329.45 260.18 323.36 260.18 323.36 266.48 318.12 266.48 318.12 260.18 312.02 260.18 312.02 266.48 306.79 266.48 306.79 260.18 300.69 260.18 300.69 266.48 295.46 266.48 295.46 260.18 289.34 260.18 283.3 311.62 346.84 311.62 340.8 260.18" style="fill:#407BFF"></polygon><polygon points="346.84 311.62 283.31 311.62 284.87 298.27 289.34 260.18 295.46 260.18 295.46 266.48 300.69 266.48 300.69 260.18 306.79 260.18 306.79 266.48 312.02 266.48 312.02 260.18 318.12 260.18 318.12 266.48 323.36 266.48 323.36 260.18 329.45 260.18 329.45 266.48 334.69 266.48 334.69 260.18 340.8 260.18 345.27 298.27 346.84 311.62" style="fill:#fff;opacity:0.30000000000000004"></polygon><polygon points="346.84 311.62 283.31 311.62 284.87 298.27 288.08 298.27 288.08 294.74 294.48 294.74 294.48 298.27 299.97 298.27 299.97 294.74 306.38 294.74 306.38 298.27 311.87 298.27 311.87 294.74 318.28 294.74 318.28 298.27 323.77 298.27 323.77 294.74 330.18 294.74 330.18 298.27 335.67 298.27 335.67 294.74 342.07 294.74 342.07 298.27 345.27 298.27 346.84 311.62" style="opacity:0.2;isolation:isolate"></polygon><g style="opacity:0.2;isolation:isolate"><circle cx="291.11" cy="289.14" r="1.12"></circle><circle cx="330.81" cy="286.08" r="1.12"></circle><circle cx="313.45" cy="288.47" r="1.12"></circle><path d="M291.57,268.38a.56.56,0,0,1-1.12,0,.56.56,0,1,1,1.12,0Z"></path><circle cx="303.98" cy="263.94" r="1.12"></circle><circle cx="327.05" cy="266.27" r="1.12"></circle><path d="M311.31,273.55a.56.56,0,1,1-.56-.56A.56.56,0,0,1,311.31,273.55Z"></path><path d="M339,278.53a.56.56,0,1,1-.56-.56A.56.56,0,0,1,339,278.53Z"></path><path d="M299.57,300.45a.57.57,0,1,1-.56-.56A.57.57,0,0,1,299.57,300.45Z"></path><path d="M297.05,279.09a.56.56,0,1,1-.56-.56A.56.56,0,0,1,297.05,279.09Z"></path><path d="M324.45,277.4a.56.56,0,1,1-1.12,0,.56.56,0,0,1,1.12,0Z"></path><path d="M332.49,300.45a.56.56,0,1,1-.56-.56A.56.56,0,0,1,332.49,300.45Z"></path><path d="M339.55,263.38a.56.56,0,1,1-.56-.56A.56.56,0,0,1,339.55,263.38Z"></path></g><path d="M315.07,273.46h0a10.21,10.21,0,0,0-10.21,10.21V313.9h20.42V283.67A10.21,10.21,0,0,0,315.07,273.46Z" style="fill:#407BFF"></path><path d="M315.07,273.46h0a10.21,10.21,0,0,0-10.21,10.21V313.9h20.42V283.67A10.21,10.21,0,0,0,315.07,273.46Z" style="opacity:0.2;isolation:isolate"></path><path d="M315.07,278.91h0a7.49,7.49,0,0,0-7.49,7.49v22.2h15V286.4A7.49,7.49,0,0,0,315.07,278.91Z" style="opacity:0.2;isolation:isolate"></path><polygon points="363.9 297.33 357.35 297.33 357.35 304.52 352.12 304.52 352.12 297.33 346.02 297.33 346.02 304.52 340.79 304.52 340.79 297.33 334.69 297.33 334.69 304.52 329.45 304.52 329.45 297.33 323.36 297.33 323.36 304.52 318.12 304.52 318.12 297.33 312.02 297.33 312.02 304.52 306.79 304.52 306.79 297.33 300.69 297.33 300.69 304.52 295.46 304.52 295.46 297.33 289.36 297.33 289.36 304.52 284.13 304.52 284.13 297.33 278.03 297.33 278.03 304.52 272.8 304.52 272.8 297.33 266.25 297.33 254.78 394.95 375.37 394.95 363.9 297.33" style="fill:#407BFF"></polygon><polygon points="375.36 394.96 254.78 394.96 261.53 337.44 266.24 297.33 272.8 297.33 272.8 304.51 278.03 304.51 278.03 297.33 284.13 297.33 284.13 304.51 289.37 304.51 289.37 297.33 295.46 297.33 295.46 304.51 300.7 304.51 300.7 297.33 306.8 297.33 306.8 304.51 312.03 304.51 312.03 297.33 318.13 297.33 318.13 304.51 323.36 304.51 323.36 297.33 329.46 297.33 329.46 304.51 334.69 304.51 334.69 297.33 340.79 297.33 340.79 304.51 346.02 304.51 346.02 297.33 352.12 297.33 352.12 304.51 357.35 304.51 357.35 297.33 363.91 297.33 368.61 337.44 375.36 394.96" style="fill:#fff;opacity:0.30000000000000004"></polygon><polygon points="375.36 394.96 254.78 394.96 261.53 337.44 270.69 337.44 270.69 340.97 276.18 340.97 276.18 337.44 282.59 337.44 282.59 340.97 288.08 340.97 288.08 337.44 294.48 337.44 294.48 340.97 299.98 340.97 299.98 337.44 306.38 337.44 306.38 340.97 311.87 340.97 311.87 337.44 318.28 337.44 318.28 340.97 323.77 340.97 323.77 337.44 330.18 337.44 330.18 340.97 335.67 340.97 335.67 337.44 342.07 337.44 342.07 340.97 347.56 340.97 347.56 337.44 353.97 337.44 353.97 340.97 359.46 340.97 359.46 337.44 368.61 337.44 375.36 394.96" style="opacity:0.2;isolation:isolate"></polygon><g style="opacity:0.2;isolation:isolate"><circle cx="275.81" cy="309.41" r="1.12"></circle><circle cx="297.88" cy="342.84" r="1.12"></circle><path d="M285.74,318.84a1.12,1.12,0,1,1-1.12-1.12A1.12,1.12,0,0,1,285.74,318.84Z"></path><circle cx="337.58" cy="339.77" r="1.12"></circle><circle cx="320.22" cy="342.16" r="1.12"></circle><path d="M269.64,320a.56.56,0,1,1-.56-.56A.56.56,0,0,1,269.64,320Z"></path><path d="M276.7,343.28a.89.89,0,1,1-.89-.88A.89.89,0,0,1,276.7,343.28Z"></path><path d="M275.13,331.1a.44.44,0,0,1-.44.44.45.45,0,0,1,0-.89A.45.45,0,0,1,275.13,331.1Z"></path><path d="M292.46,301.45A.45.45,0,1,1,292,301,.45.45,0,0,1,292.46,301.45Z"></path><path d="M360.44,316a.43.43,0,0,1-.44.44.44.44,0,0,1-.44-.44.44.44,0,0,1,.44-.44A.44.44,0,0,1,360.44,316Z"></path><path d="M265.33,344.17a.45.45,0,0,1-.89,0,.45.45,0,0,1,.89,0Z"></path><path d="M353.91,330a.56.56,0,0,1-1.12,0,.56.56,0,1,1,1.12,0Z"></path><path d="M366.77,340.14a.89.89,0,1,1-.88-.88A.88.88,0,0,1,366.77,340.14Z"></path><path d="M356.12,346.6a.89.89,0,1,1-.88-.88A.88.88,0,0,1,356.12,346.6Z"></path><path d="M350.26,308.29a.44.44,0,0,1-.44.44.45.45,0,1,1,.44-.44Z"></path><path d="M358.68,302.45a.45.45,0,1,1-.44-.44A.45.45,0,0,1,358.68,302.45Z"></path><circle cx="284.06" cy="330.54" r="0.56"></circle><path d="M297.12,316a.56.56,0,1,1-.56-.56A.56.56,0,0,1,297.12,316Z"></path><path d="M314.25,302a.56.56,0,1,1-.56-.56A.56.56,0,0,1,314.25,302Z"></path><circle cx="310.75" cy="317.63" r="1.12"></circle><circle cx="325.01" cy="310.53" r="1.12"></circle><circle cx="333.82" cy="319.96" r="1.12"></circle><path d="M318.08,327.24a.56.56,0,1,1-1.12,0,.56.56,0,0,1,1.12,0Z"></path><path d="M303.82,332.78a.56.56,0,1,1-.56-.56A.56.56,0,0,1,303.82,332.78Z"></path><path d="M333.82,331.66a.56.56,0,1,1-.56-.56A.56.56,0,0,1,333.82,331.66Z"></path><path d="M346.32,317.07a.56.56,0,1,1-.56-.56A.56.56,0,0,1,346.32,317.07Z"></path></g><path d="M332.7,333l-.5-10a5.64,5.64,0,0,0-5.63-5.26,5.11,5.11,0,0,0-5.2,5.26l.31,10Z" style="fill:#407BFF"></path><path d="M356.82,333l-.88-10a5.9,5.9,0,0,0-5.82-5.26,4.89,4.89,0,0,0-5,5.26l.68,10Z" style="fill:#407BFF"></path><path d="M284.36,333l.68-10a4.9,4.9,0,0,0-5-5.26,5.9,5.9,0,0,0-5.82,5.26l-.88,10Z" style="fill:#407BFF"></path><path d="M308.47,333l.31-10a5.11,5.11,0,0,0-5.2-5.26,5.64,5.64,0,0,0-5.63,5.26l-.51,10Z" style="fill:#407BFF"></path><g style="opacity:0.2;isolation:isolate"><path d="M332.7,333l-.5-10a5.64,5.64,0,0,0-5.63-5.26,5.11,5.11,0,0,0-5.2,5.26l.31,10Z"></path><path d="M356.82,333l-.88-10a5.9,5.9,0,0,0-5.82-5.26,4.89,4.89,0,0,0-5,5.26l.68,10Z"></path><path d="M284.36,333l.68-10a4.9,4.9,0,0,0-5-5.26,5.9,5.9,0,0,0-5.82,5.26l-.88,10Z"></path><path d="M308.47,333l.31-10a5.11,5.11,0,0,0-5.2-5.26,5.64,5.64,0,0,0-5.63,5.26l-.51,10Z"></path></g><g style="opacity:0.2;isolation:isolate"><path d="M330.7,333l-.35-7.06a4,4,0,0,0-4-3.71,3.6,3.6,0,0,0-3.66,3.71l.22,7.06Z"></path><path d="M354.13,333l-.62-7.06a4.15,4.15,0,0,0-4.1-3.71,3.45,3.45,0,0,0-3.52,3.71l.48,7.06Z"></path><path d="M283.76,333l.48-7.06a3.45,3.45,0,0,0-3.52-3.71,4.15,4.15,0,0,0-4.1,3.71L276,333Z"></path><path d="M307.19,333l.22-7.06a3.6,3.6,0,0,0-3.66-3.71,4,4,0,0,0-4,3.71l-.35,7.06Z"></path></g><polygon points="387.05 341.55 380.01 341.55 380.01 348.56 374.78 348.56 374.78 341.55 368.68 341.55 368.68 348.56 363.45 348.56 363.45 341.55 357.35 341.55 357.35 348.56 352.12 348.56 352.12 341.55 346.02 341.55 346.02 348.56 340.79 348.56 340.79 341.55 334.69 341.55 334.69 348.56 329.45 348.56 329.45 341.55 323.36 341.55 323.36 348.56 318.12 348.56 318.12 341.55 312.02 341.55 312.02 348.56 306.79 348.56 306.79 341.55 300.69 341.55 300.69 348.56 295.46 348.56 295.46 341.55 289.36 341.55 289.36 348.56 284.13 348.56 284.13 341.55 278.03 341.55 278.03 348.56 272.8 348.56 272.8 341.55 266.7 341.55 266.7 348.56 261.47 348.56 261.47 341.55 255.37 341.55 255.37 348.56 250.14 348.56 250.14 341.55 243.1 341.55 234.65 415.32 395.5 415.32 387.05 341.55" style="fill:#407BFF"></polygon><polygon points="387.05 341.55 380.01 341.55 380.01 348.56 374.78 348.56 374.78 341.55 368.68 341.55 368.68 348.56 363.45 348.56 363.45 341.55 357.35 341.55 357.35 348.56 352.12 348.56 352.12 341.55 346.02 341.55 346.02 348.56 340.79 348.56 340.79 341.55 334.69 341.55 334.69 348.56 329.45 348.56 329.45 341.55 323.36 341.55 323.36 348.56 318.12 348.56 318.12 341.55 312.02 341.55 312.02 348.56 306.79 348.56 306.79 341.55 300.69 341.55 300.69 348.56 295.46 348.56 295.46 341.55 289.36 341.55 289.36 348.56 284.13 348.56 284.13 341.55 278.03 341.55 278.03 348.56 272.8 348.56 272.8 341.55 266.7 341.55 266.7 348.56 261.47 348.56 261.47 341.55 255.37 341.55 255.37 348.56 250.14 348.56 250.14 341.55 243.1 341.55 234.65 415.32 395.5 415.32 387.05 341.55" style="fill:#fff;opacity:0.30000000000000004"></polygon><g style="opacity:0.2;isolation:isolate"><path d="M264,375.44a1.12,1.12,0,1,1-1.12-1.12A1.13,1.13,0,0,1,264,375.44Z"></path><circle cx="277.13" cy="368.34" r="1.12"></circle><circle cx="303.46" cy="406.65" r="1.12"></circle><circle cx="285.94" cy="377.77" r="1.12"></circle><circle cx="338.9" cy="398.7" r="1.12"></circle><path d="M322.67,401.09a1.13,1.13,0,1,1-1.12-1.12A1.12,1.12,0,0,1,322.67,401.09Z"></path><path d="M270.2,385.05a.56.56,0,1,1-.56-.56A.56.56,0,0,1,270.2,385.05Z"></path><path d="M252,391.15a.89.89,0,1,1-.89-.89A.88.88,0,0,1,252,391.15Z"></path><path d="M264.88,358.22a.89.89,0,0,1-1.77,0,.89.89,0,1,1,1.77,0Z"></path><path d="M282.84,402.65a.89.89,0,1,1-.89-.88A.89.89,0,0,1,282.84,402.65Z"></path><path d="M262.2,394.73a.45.45,0,1,1-.44-.44A.45.45,0,0,1,262.2,394.73Z"></path><circle cx="289.95" cy="359.1" r="0.44"></circle><path d="M384.72,353.31a.45.45,0,0,1-.89,0,.45.45,0,0,1,.89,0Z"></path><path d="M265.77,407.89a.45.45,0,0,1-.89,0,.45.45,0,0,1,.89,0Z"></path><path d="M245.52,406.74a.44.44,0,0,1-.44.44.44.44,0,0,1-.44-.44.43.43,0,0,1,.44-.44A.44.44,0,0,1,245.52,406.74Z"></path><path d="M385.4,383.37a.57.57,0,1,1-.56-.56A.57.57,0,0,1,385.4,383.37Z"></path><path d="M368.66,380a.58.58,0,0,1-.57.57.57.57,0,0,1-.56-.57.56.56,0,0,1,.56-.56A.57.57,0,0,1,368.66,380Z"></path><path d="M355.24,388.91a.56.56,0,0,1-.56.56.57.57,0,0,1-.57-.56.58.58,0,0,1,.57-.57A.57.57,0,0,1,355.24,388.91Z"></path><path d="M368.09,399.07a.89.89,0,1,1-.88-.88A.88.88,0,0,1,368.09,399.07Z"></path><path d="M346.52,361.83a.89.89,0,0,1-1.77,0,.89.89,0,1,1,1.77,0Z"></path><path d="M355,407.45a.89.89,0,1,1-.89-.89A.88.88,0,0,1,355,407.45Z"></path><circle cx="376.95" cy="393.05" r="0.44"></circle><path d="M381,406.21a.44.44,0,0,1-.88,0,.44.44,0,0,1,.88,0Z"></path><path d="M360,361.38a.45.45,0,0,1-.44.45.45.45,0,1,1,.44-.45Z"></path><path d="M251.57,369.46a.43.43,0,0,1-.44.44.44.44,0,0,1-.44-.44.44.44,0,0,1,.44-.44A.44.44,0,0,1,251.57,369.46Z"></path><path d="M285.94,389.47a.56.56,0,1,1-.56-.56A.56.56,0,0,1,285.94,389.47Z"></path><path d="M298.44,374.88a.56.56,0,1,1-.56-.56A.56.56,0,0,1,298.44,374.88Z"></path><path d="M312.64,359.1a.56.56,0,1,1-.56-.56A.56.56,0,0,1,312.64,359.1Z"></path><circle cx="312.08" cy="376.57" r="1.12"></circle><circle cx="326.33" cy="369.46" r="1.12"></circle><circle cx="335.14" cy="378.89" r="1.12"></circle><circle cx="377.82" cy="368.34" r="1.12"></circle><path d="M319.4,386.17a.56.56,0,1,1-.56-.56A.57.57,0,0,1,319.4,386.17Z"></path><path d="M305.15,391.71a.56.56,0,0,1-.56.56.56.56,0,1,1,0-1.12A.56.56,0,0,1,305.15,391.71Z"></path><path d="M335.14,390.59a.56.56,0,1,1-.56-.56A.56.56,0,0,1,335.14,390.59Z"></path><path d="M347.64,376a.56.56,0,1,1-1.12,0,.56.56,0,0,1,1.12,0Z"></path></g><path d="M346.05,384.06l-.51-10a5.64,5.64,0,0,0-5.63-5.27,5.12,5.12,0,0,0-5.2,5.27l.31,10Z" style="fill:#407BFF"></path><path d="M376.84,384.06,376,374a5.92,5.92,0,0,0-5.83-5.27,4.9,4.9,0,0,0-5,5.27l.68,10Z" style="fill:#407BFF"></path><path d="M264.34,384.06l.68-10a4.9,4.9,0,0,0-5-5.27,5.91,5.91,0,0,0-5.82,5.27l-.88,10Z" style="fill:#407BFF"></path><path d="M295.12,384.06l.31-10a5.12,5.12,0,0,0-5.2-5.27A5.65,5.65,0,0,0,284.6,374l-.5,10Z" style="fill:#407BFF"></path><g style="opacity:0.2;isolation:isolate"><path d="M346.05,384.06l-.51-10a5.64,5.64,0,0,0-5.63-5.27,5.12,5.12,0,0,0-5.2,5.27l.31,10Z"></path><path d="M376.84,384.06,376,374a5.92,5.92,0,0,0-5.83-5.27,4.9,4.9,0,0,0-5,5.27l.68,10Z"></path><path d="M264.34,384.06l.68-10a4.9,4.9,0,0,0-5-5.27,5.91,5.91,0,0,0-5.82,5.27l-.88,10Z"></path><path d="M295.12,384.06l.31-10a5.12,5.12,0,0,0-5.2-5.27A5.65,5.65,0,0,0,284.6,374l-.5,10Z"></path></g><g style="opacity:0.2;isolation:isolate"><path d="M344.5,384.06l-.38-7.59a4.27,4.27,0,0,0-4.26-4,3.87,3.87,0,0,0-3.94,4l.23,7.59Z"></path><path d="M374.87,384.06l-.67-7.59a4.46,4.46,0,0,0-4.41-4,3.71,3.71,0,0,0-3.79,4l.52,7.59Z"></path><path d="M263.66,384.06l.52-7.59a3.71,3.71,0,0,0-3.79-4,4.47,4.47,0,0,0-4.41,4l-.67,7.59Z"></path><path d="M294,384.06l.23-7.59a3.87,3.87,0,0,0-3.94-4,4.27,4.27,0,0,0-4.26,4l-.38,7.59Z"></path></g><path d="M315.07,374.88h0a10.21,10.21,0,0,0-10.21,10.21v30.23h20.42V385.09A10.21,10.21,0,0,0,315.07,374.88Z" style="fill:#407BFF"></path><path d="M315.07,374.88h0a10.21,10.21,0,0,0-10.21,10.21v30.23h20.42V385.09A10.21,10.21,0,0,0,315.07,374.88Z" style="opacity:0.2;isolation:isolate"></path><path d="M315.07,384a7.91,7.91,0,0,0-7.91,7.91v23.42H323V391.9A7.92,7.92,0,0,0,315.07,384Z" style="opacity:0.2;isolation:isolate"></path></g><g id="freepik--Character--inject-84"><g id="freepik--group--inject-84"><path d="M182,280.35c0,2-5.9,6.57-7.57,5.47s-4.85-8.78-4.85-8.78-13.13,2.52-17.81,1.67a3.76,3.76,0,0,1-1-.3c-3.3-1.61-7.55-26.46-7.55-26.46l1.76-2,5.79-6.7c4.35,4.83,5.37,25.68,5.37,25.68L171.7,273s3.22-1.72,5.7,0S182,278.37,182,280.35Z" style="fill:#ebb376"></path><path d="M151.76,278.71a3.76,3.76,0,0,1-1-.3c-3.3-1.61-7.55-26.46-7.55-26.46l1.76-2a4,4,0,0,1,2.77,1.24C151.59,255.11,154.79,270.4,151.76,278.71Z" style="opacity:0.2;isolation:isolate"></path><path d="M146.45,409.66c-3.73-.42-12.67-2.66-12.32-6.69,0,0-8.81-4-10.39,0a82.17,82.17,0,0,0-2.14,8.62,1.6,1.6,0,0,0,1.48,1.7c3.55.16,5.26.06,9.73.3,2.75.17,8.16.75,12,.39S148.09,409.84,146.45,409.66Z" style="fill:#ebb376"></path><path d="M92.61,409.66c-3.79-.43-12.49-3.38-11.6-6.71,0,0-9.51-4.5-11.48,0-.73,1.66-.9,7.2-.9,7.2-.93,2.27-.27,3,.61,3.1,3.55.16,5.25.06,9.73.3,2.75.17,8.16.75,12,.39S94.25,409.84,92.61,409.66Z" style="fill:#ebb376"></path><path d="M150.74,243.22c-2.83,5.36-4.58,13.37-5.66,21.16a204.51,204.51,0,0,0-1.7,21.18l-50.21-9.05.06-.29c.9-4.88,2-9.56,3.09-13.94.56-2.17,1.13-4.27,1.71-6.28.14-.5.27-1,.41-1.44.19-.63.37-1.25.56-1.87,1.6-5.31,3.19-9.91,4.52-13.5,2-5.37,3.36-8.52,3.36-8.52a33.07,33.07,0,0,1,8.63-.4q2.46.12,5.61.55a84.42,84.42,0,0,1,9.94,2.06,63.31,63.31,0,0,1,9.91,3.47,39.16,39.16,0,0,1,3.64,1.87h0C149.32,241,150.74,243.22,150.74,243.22Z" style="fill:#ebb376"></path><path d="M120.77,233.69l12,6.81,5.14-1.4a8.92,8.92,0,0,1-1-2.47c-1.41-5.72,4.51-9.4,4.51-9.4l-4.95-2.95-10.88-6.47C128.14,228.74,120.77,233.69,120.77,233.69Z" style="fill:#ebb376"></path><path d="M126.4,222.47s2.65,11.82,10.48,14.16c-1.41-5.72,4.51-9.4,4.51-9.4l-4.95-2.95Z" style="opacity:0.2;isolation:isolate"></path><path d="M158.83,195.91s8.09,14.61-9.47,20C129.52,222,158.83,195.91,158.83,195.91Z" style="fill:#263238"></path><path d="M123.29,200.74c-3,9.52-1.83,21.84,5.3,26.26,13.08,8.12,19.65,7.59,25.34-2.24,5.16-8.84,7.71-25-2.84-32.38S127.45,187.54,123.29,200.74Z" style="fill:#ebb376"></path><path d="M157.8,202.63a27.56,27.56,0,0,1-14-4.58s-11.63.06-12.92,6.89-4.38,6-8,14.28c0,0-8.35-4.53-2.42-23.46,4.31-13.8,18-14.39,29.86-9.43C160.29,190.49,164.5,200.49,157.8,202.63Z" style="fill:#263238"></path><path d="M143.38,211.77c-.42,1.19-.13,2.4.66,2.66s1.75-.48,2.18-1.67.11-2.38-.67-2.66S143.8,210.58,143.38,211.77Z" style="fill:#263238"></path><path d="M153.1,214.65c-.4,1.14-.12,2.29.63,2.55s1.68-.46,2.08-1.6.12-2.28-.63-2.55S153.5,213.51,153.1,214.65Z" style="fill:#263238"></path><path d="M148.92,207a.72.72,0,0,0,.29-.2A.58.58,0,0,0,149,206a5.6,5.6,0,0,0-5.2-.36.56.56,0,0,0-.25.76h0a.6.6,0,0,0,.77.25h0a4.48,4.48,0,0,1,4.13.37A.55.55,0,0,0,148.92,207Z" style="fill:#263238"></path><path d="M158,210.71a.69.69,0,0,0,.35,0,.58.58,0,0,0,.19-.79,5.62,5.62,0,0,0-4.39-2.8.57.57,0,0,0-.59.56h0a.6.6,0,0,0,.56.58h0a4.5,4.5,0,0,1,3.45,2.3A.59.59,0,0,0,158,210.71Z" style="fill:#263238"></path><path d="M150.75,215.38l-3,4.63a6.78,6.78,0,0,0,3.87,1.14A16.19,16.19,0,0,1,150.75,215.38Z" style="fill:#d58745"></path><path d="M131.51,210.48s-.32-6.65-3.95-6-6.64,10.48-2.24,12.12S132.34,214.31,131.51,210.48Z" style="fill:#ebb376"></path><path d="M146.42,224.16a31.47,31.47,0,0,0-3.71,2.72c-.21-.17-.42-.34-.61-.52-2.78-2.41-3.27-4.44-3-6a4.71,4.71,0,0,1,1-2,4.61,4.61,0,0,1,.92-.89c.71,2.15,3.12,4.59,4.46,5.84C146,223.86,146.42,224.16,146.42,224.16Z" style="fill:#263238"></path><path d="M145.48,223.33l-1.11.77c-2.61-2.27-4.14-4.22-4.27-5.72a4.61,4.61,0,0,1,.92-.89C141.73,219.64,144.14,222.08,145.48,223.33Z" style="fill:#fff"></path><path d="M142.1,226.36c-2.78-2.41-3.27-4.44-3-6a12,12,0,0,1,2.55,3.28A4.52,4.52,0,0,1,142.1,226.36Z" style="fill:#de5753"></path><path d="M157.32,191s10.18,5.91,4.51,19.54l-.22-5.48a12.6,12.6,0,0,1-1.93,5.09l-7.79-2,.86-4.68-2.82,4.32-9.66-3.41,2.69-3.68s-9.26,3.35-13.36-.8S138.36,180.32,157.32,191Z" style="fill:#263238"></path><path d="M139.49,186s3.94-10.61-5.64-16.56-26.26,10.81-26.26,10.81l3.94,7.09,6.47-5.21-5.74,6.73,6.06-4.61-3.72,5,2.94,1.54s7.52-10.5,12.93-10.94S135,187.3,135,187.3Z" style="fill:#263238"></path><path d="M143.38,285.56a23.36,23.36,0,0,1,.44,5,48.51,48.51,0,0,1-1.53,11.73c-.28,1.16-.62,2.37-1,3.63-1.46,4.7-5.39,9.21-10.43,12.54a34.63,34.63,0,0,1-6.94,3.54,27.48,27.48,0,0,1-13.75,1.7,18.8,18.8,0,0,1-8.64-3.63,49.26,49.26,0,0,1-9.38-8.85,22.41,22.41,0,0,1-3.36-6.11c-1.85-5.19-1.72-11.48,1-20a87.78,87.78,0,0,1,3.35-8.61l.06-.29c.3-1.41,1.66-7.68,3.16-13.82.54-2.23,1.1-4.45,1.64-6.4.14-.5.27-1,.41-1.44.19-.67.38-1.3.56-1.87a18.06,18.06,0,0,0,8.23,0c5.42-1.42,11.06-6.51,8.28-22.39l-.09-.53,5.25-.12s.15.45.45,1.2c1.36,3.61,5.75,14.13,10.68,15.08,6.26,1.21,9.17-9.55,9.17-9.55l3.64,1.87h0s-1.87,16.29.45,26.15c.09.38.19.76.29,1.12Z" style="fill:#407BFF"></path><path d="M111,318.16q-.39,2.79-.86,5.54c-7.77,45.56-31.1,82.58-31.1,82.58l-9.58-2.93s19-42.25,19.37-91.7c0-2.17,0-4.35-.07-6.54,0-1.76-.12-3.53-.22-5.31A12.42,12.42,0,0,1,102.07,301a23.29,23.29,0,0,1,8.83,15.34A13.18,13.18,0,0,1,111,318.16Z" style="fill:#ebb376"></path><path d="M132.38,407.88l-10-.83s13.66-39.54,1.48-84.93a1.26,1.26,0,0,1,0-.12,32.8,32.8,0,0,1,2.26-5.13,35.11,35.11,0,0,1,3.78-5.68,29.65,29.65,0,0,1,12.34-8.9l.2-.07c.64,3.66,1.15,7.3,1.54,10.89C149.68,364.36,132.38,407.88,132.38,407.88Z" style="fill:#ebb376"></path><path d="M144,313.11a3.45,3.45,0,0,0-4.32.81c-2.46,2.53-5.44,4.67-8.86,4.54a9.09,9.09,0,0,1-4.68-1.59c-5.43-3.52-7.83-.64-13.76-.39a5.9,5.9,0,0,1-1.51-.13c-5.36-1-10.33-8.07-14.18-6.37a20.51,20.51,0,0,1-4.58,1.24c-1.11.18-2.24.33-3.29.43,0-2.17,0-4.35-.07-6.54-1.85-5.19-1.72-11.48,1-20l54,5.44a48.51,48.51,0,0,1-1.53,11.73l.2-.07C143.13,305.88,143.64,309.52,144,313.11Z" style="opacity:0.2;isolation:isolate"></path><path d="M92.68,279.2,78.37,301.86s6.07,7.64,13.33,3,10.93,3.4,17.45,5.58,8.74-3.54,13.12-2.36,5.77,7.46,9.83,5.39,9.53-6.14,12.69-1.79,8,.84,8,.84l-9.4-28Z" style="fill:#407BFF"></path><path d="M92.68,279.2,78.37,301.86s6.07,7.64,13.33,3,10.93,3.4,17.45,5.58,8.74-3.54,13.12-2.36,5.77,7.46,9.83,5.39,9.53-6.14,12.69-1.79,8,.84,8,.84l-9.4-28Z" style="fill:#fff;opacity:0.1"></path><path d="M157.58,297.41l2.53-6.84,5.45-14.72-18.68-5.26c-3.76-1.4-9.57,5-13,14.16s-3.12,17.81.64,19.21l17.6,8.17Z" style="fill:#263238"></path><path d="M157.58,297.41l2.53-6.84,5.45-14.72-18.68-5.26c-3.76-1.4-9.57,5-13,14.16s-3.12,17.81.64,19.21l17.6,8.17Z" style="fill:#fff;opacity:0.30000000000000004"></path><path d="M152.37,313.52l.28.14,5.73,2.82,2.47-6.68a44.57,44.57,0,0,0,9.81-26.5l2.48-6.68-6.56-1.74,0,.06c-4.36-.77-10.66,6.38-14.43,16.56s-3.65,19.71.16,22h0Z" style="fill:#263238"></path><path d="M152.37,313.52l.28.14,5.73,2.82,2.47-6.68a44.57,44.57,0,0,0,9.81-26.5l2.48-6.68-6.56-1.74,0,.06c-4.36-.77-10.66,6.38-14.43,16.56s-3.65,19.71.16,22h0Z" style="fill:#fff;opacity:0.4"></path><path d="M157.6,293.53c4.14-11.18,11.11-18.56,15.88-16.79s5.25,11.9,1.11,23.08-11.11,18.55-15.88,16.79S153.46,304.71,157.6,293.53Z" style="fill:#263238"></path><path d="M157.6,293.53c4.14-11.18,11.11-18.56,15.88-16.79s5.25,11.9,1.11,23.08-11.11,18.55-15.88,16.79S153.46,304.71,157.6,293.53Z" style="fill:#fff;opacity:0.5"></path><ellipse cx="166.09" cy="296.67" rx="19.58" ry="7.99" transform="translate(-169.8 349.41) rotate(-69.68)" style="fill:#263238"></ellipse><path d="M107,273.51c-4.52-1.25-8.11-6.25-10.63-11.11a.75.75,0,0,0-.07-.12c.56-2.17,1.13-4.27,1.71-6.28.14-.5.27-1,.41-1.44.19-.67.38-1.3.56-1.87,1.6-5.31,3.19-9.91,4.52-13.5,1.24,4.13,2.58,8.86,3.71,13.47C110,264.1,111.55,274.76,107,273.51Z" style="opacity:0.2;isolation:isolate"></path><path d="M106.88,230.67c-7.44,1.3-9,36.49-4.28,44.21s21.34,16.38,21.34,16.38,7.57,10.38,9.08,11.54,6.69-1.21,6.69-1.21-4.56-13.24-5.93-13.61-5.41,1.48-5.41,1.48-15.91-17.19-16.17-19.06-.63-19.61,1.48-27.36Z" style="fill:#ebb376"></path><path d="M198.87,338.9c1.32,4.1,2.37,6.32,2.11,10s-1.32,3.78-2.64,3.44,2.37,12,1.32,16.76-3.43-.91-5.8-14c-2.35-12.94-22.22-36.29-34.13-39.9l-.43-.12c-4-1.46-4.42-10.13-1.2-19.72a59.41,59.41,0,0,1,15.13,5.06,50.45,50.45,0,0,1,8.76,5.48c12.16,9.53,21.89,23,19.78,27.37S197.55,334.81,198.87,338.9Z" style="fill:#407BFF"></path><path d="M198.87,338.9c1.32,4.1,2.37,6.32,2.11,10s-1.32,3.78-2.64,3.44,2.37,12,1.32,16.76-3.43-.91-5.8-14c-2.35-12.94-22.22-36.29-34.13-39.9l-.43-.12c-4-1.46-4.42-10.13-1.2-19.72a59.41,59.41,0,0,1,15.13,5.06,50.45,50.45,0,0,1,8.76,5.48c12.16,9.53,21.89,23,19.78,27.37S197.55,334.81,198.87,338.9Z" style="fill:#fff;opacity:0.30000000000000004"></path><path d="M161.25,311s10.57,4.9,16.15,11.59,8.74,9.49,12.3,16.39,2.77-2.58,0-8.52-3.95-5.14-2.77-5.93,6.33,7.32,6.93,5.34-4.55-10.59-4.35-11.72,3.45.36,4.39,1.49c0,0-8.75-11.33-17.85-14.69s2.06,4.79,1.53,7.44-7.41-2.73-8.13-2.51-.68,1.79-2.48,1.3S161.08,309,161.25,311Z" style="fill:#fff;opacity:0.30000000000000004"></path><g style="opacity:0.2;isolation:isolate"><circle cx="165.56" cy="309.98" r="1.21"></circle><circle cx="177.52" cy="310.73" r="1.21"></circle><circle cx="198.1" cy="344.71" r="1.21"></circle><circle cx="187.03" cy="320.91" r="1.21"></circle><path d="M164.31,299.81a1,1,0,1,1-1.91,0,1,1,0,0,1,1.91,0Z"></path><path d="M199.05,360.38a1,1,0,1,1-1-1A1,1,0,0,1,199.05,360.38Z"></path><path d="M186.3,313a.48.48,0,0,1-.48.48.47.47,0,0,1-.48-.48.48.48,0,0,1,.48-.48A.49.49,0,0,1,186.3,313Z"></path><circle cx="173.14" cy="303.12" r="0.48"></circle><circle cx="174.42" cy="320.91" r="0.48"></circle><circle cx="186.42" cy="333.53" r="0.61"></circle><circle cx="198.1" cy="328.17" r="1.21"></circle><path d="M193.9,336.61a.6.6,0,0,1-.6.6.61.61,0,1,1,0-1.21A.6.6,0,0,1,193.9,336.61Z"></path></g></g></g><g id="freepik--Sand--inject-84"><path d="M146.19,411.43S156.05,390,162.1,388s9.3,3.22,13.58-2.11,5.62-7.35,7.9-9.3,7.78-15.43,10.16-16.55,3.71,9.49,7.15,10.62,6.06-1.3,9.11,3.65,1.52,14.45,7.16,15.88,8.71-.91,11.41,5,5.78,9,8.09,9,7.19,10.06,7.19,10.06H146.19Z" style="fill:#407BFF"></path><path d="M243.85,414.26H146.19v-2.83s1.88-4.08,4.5-8.85h0c3.37-6.15,8-13.44,11.4-14.6,3.71-1.25,6.37.24,8.85.35,1.57.08,3.07-.4,4.73-2.46,4.28-5.34,5.62-7.35,7.9-9.3,1.24-1.07,3.45-5.56,5.57-9.61,1.78-3.37,3.51-6.43,4.59-6.94,2.38-1.11,3.71,9.49,7.15,10.62s6.06-1.3,9.11,3.65a14.42,14.42,0,0,1,1.59,4.25c1,4.33,1.26,9.32,4.32,11.12a4.82,4.82,0,0,0,1.25.51c5.09,1.3,8.08-.48,10.59,3.5a12.58,12.58,0,0,1,.82,1.53c2.7,5.93,5.78,9,8.09,9S243.85,414.26,243.85,414.26Z" style="fill:#fff;opacity:0.30000000000000004"></path><path d="M211.59,378.54c-2.1,1.19-4.74-2.76-5.19.47-.6,4.25-1.59,3.08-6.51,0s-6.15,8.22-8.65,4.48,3.49-7.14-1.21-9.61c-1.82-1-1.7-3.8-.88-6.92,1.78-3.37,3.51-6.43,4.59-6.94,2.38-1.11,3.71,9.49,7.15,10.62s6.06-1.3,9.11,3.65A14.42,14.42,0,0,1,211.59,378.54Z" style="fill:#fff;opacity:0.30000000000000004"></path><path d="M227.75,393.67c-2.2,0-3.73-1.23-4.54,1.06-1.19,3.38,2.17,10.26-3.56,7.81s-9.1-.37-13.16,2.74-13.64,2.35-16.46.46-5.72,1.07-8.72,1.17-4.58-3.51-6.56-4.37-12.07,7.77-14.05,2.76c-1.7-4.32-5-2.89-10-2.72,3.37-6.15,8-13.44,11.4-14.6,3.71-1.25,6.37.24,8.85.35-.47,3-1.44,6.32,1.23,5.63,4.55-1.19,9.89-6.08,13.64-.67s10.66,10.5,15.22,5,7.53-5.54,9.71-5.82c1.59-.2,4.23-.27,5.16-2.8a4.82,4.82,0,0,0,1.25.51C222.25,391.47,225.24,389.69,227.75,393.67Z" style="fill:#fff;opacity:0.30000000000000004"></path><g style="opacity:0.2;isolation:isolate"><circle cx="201.43" cy="386.65" r="1.12"></circle><circle cx="174.97" cy="402.54" r="1.12"></circle><circle cx="176.09" cy="389.26" r="1.12"></circle><circle cx="217.67" cy="407.66" r="1.12"></circle><circle cx="200.31" cy="410.06" r="1.12"></circle><path d="M231.47,412.51a.56.56,0,0,1-1.12,0,.56.56,0,1,1,1.12,0Z"></path><path d="M170.59,411.18a.89.89,0,0,1-1.77,0,.89.89,0,1,1,1.77,0Z"></path><path d="M155.22,399a.45.45,0,1,1-.44-.44A.45.45,0,0,1,155.22,399Z"></path><path d="M186.62,377.44a.45.45,0,0,1-.89,0,.45.45,0,0,1,.89,0Z"></path><path d="M159,409.85a.44.44,0,0,1-.44.44.44.44,0,0,1,0-.88A.44.44,0,0,1,159,409.85Z"></path><path d="M231.47,403.91a.56.56,0,1,1-1.12,0,.56.56,0,1,1,1.12,0Z"></path><path d="M164.71,398.43a.56.56,0,1,1-.56-.56A.56.56,0,0,1,164.71,398.43Z"></path><path d="M177.21,383.85a.56.56,0,1,1-.56-.56A.56.56,0,0,1,177.21,383.85Z"></path><path d="M194.34,369.91a.56.56,0,1,1-.56-.56A.56.56,0,0,1,194.34,369.91Z"></path><circle cx="190.84" cy="385.53" r="1.12"></circle><circle cx="205.1" cy="378.43" r="1.12"></circle><circle cx="213.91" cy="387.86" r="1.12"></circle><path d="M198.17,395.14a.56.56,0,0,1-.56.56.56.56,0,1,1,0-1.12A.56.56,0,0,1,198.17,395.14Z"></path><path d="M183.91,400.68a.56.56,0,0,1-1.12,0,.56.56,0,1,1,1.12,0Z"></path><path d="M213.91,399.55a.56.56,0,0,1-.56.56.56.56,0,1,1,0-1.12A.56.56,0,0,1,213.91,399.55Z"></path><path d="M221.91,395.7a.56.56,0,1,1-.56-.56A.56.56,0,0,1,221.91,395.7Z"></path></g><path d="M96.72,416.54h338.8a97.81,97.81,0,0,0-19-6.88c-9.54-2.15-16.65,1.28-29.09,1.28s-20.38-6.07-31.16-6.14-17.43,8.5-29.12,8.5-18.91-3.64-28.77-3.64-27.09,6.1-31.19,3.64-17.94-5.56-24.75-5.79-19,8.25-22.3,5.79-3.86-6.56-9.44-8-13.21,5.51-19.33,2.23-17.3-11.37-24.92-6.93-16.85,12.81-23.22,9.08S110,409,96.72,416.54Z" style="fill:#407BFF"></path><path d="M96.72,416.54h338.8a97.81,97.81,0,0,0-19-6.88c-9.54-2.15-16.65,1.28-29.09,1.28s-20.38-6.07-31.16-6.14-17.43,8.5-29.12,8.5-18.91-3.64-28.77-3.64-27.09,6.1-31.19,3.64-17.94-5.56-24.75-5.79-19,8.25-22.3,5.79-3.86-6.56-9.44-8-13.21,5.51-19.33,2.23-17.3-11.37-24.92-6.93-16.85,12.81-23.22,9.08S110,409,96.72,416.54Z" style="fill:#fff;opacity:0.1"></path></g></svg>
